<?xml version="1.0"?>

<svg xmlns="http://www.w3.org/2000/svg" id="Layer_1" data-name="Layer 1" viewBox="0 0 555 400" width="555" height="400"> <defs> <style>.cls-1{fill:#013144;}</style> </defs> <title>kiali_logo_1color_013144_1024px</title> <path class="cls-1" d="M349.87,8.3c-107.27,0-194.23,87-194.23,194.23s87,194.24,194.23,194.24,194.23-87,194.23-194.24S457.14,8.3,349.87,8.3Zm0,358.9A164.67,164.67,0,1,1,514.54,202.53,164.66,164.66,0,0,1,349.87,367.2Z"></path> <path class="cls-1" d="M144.09,202.53A204.76,204.76,0,0,1,188,75.58a131.6,131.6,0,0,0-43.88-7.52C70.64,68.06,11,128.27,11,202.53S70.64,337,144.15,337a131.69,131.69,0,0,0,43.77-7.47A204.27,204.27,0,0,1,144.09,202.53Z"></path> <path class="cls-1" d="M292.4,60.65c-56,22.78-95.65,77.78-95.65,141.88s39.62,119.11,95.65,141.89a201,201,0,0,0,0-283.77Z"></path>
</svg>
